<mxfile host="app.diagrams.net" modified="2024-01-13T12:17:13.985Z" agent="Mozilla/5.0 (Windows NT 10.0; Win64; x64) AppleWebKit/537.36 (KHTML, like Gecko) Chrome/120.0.0.0 Safari/537.36 Edg/120.0.0.0" etag="mOx1p0GsWQigC4X39z25" version="22.1.18" type="device">
  <diagram name="Page-1" id="Xpgr4c3TMIorlWeTF0We">
    <mxGraphModel dx="1518" dy="881" grid="0" gridSize="10" guides="1" tooltips="1" connect="1" arrows="1" fold="1" page="1" pageScale="1" pageWidth="827" pageHeight="1169" math="0" shadow="0">
      <root>
        <mxCell id="0" />
        <mxCell id="1" parent="0" />
        <mxCell id="m_J02QAU1l_-xuuvemvF-1" value="UserDB" style="shape=cylinder3;whiteSpace=wrap;html=1;boundedLbl=1;backgroundOutline=1;size=15;fillColor=#d5e8d4;strokeColor=#82b366;" vertex="1" parent="1">
          <mxGeometry x="430" y="400" width="60" height="80" as="geometry" />
        </mxCell>
        <mxCell id="m_J02QAU1l_-xuuvemvF-7" style="edgeStyle=orthogonalEdgeStyle;rounded=0;orthogonalLoop=1;jettySize=auto;html=1;fillColor=#d5e8d4;strokeColor=#82b366;" edge="1" parent="1" source="m_J02QAU1l_-xuuvemvF-2" target="m_J02QAU1l_-xuuvemvF-4">
          <mxGeometry relative="1" as="geometry" />
        </mxCell>
        <mxCell id="m_J02QAU1l_-xuuvemvF-8" style="edgeStyle=orthogonalEdgeStyle;rounded=0;orthogonalLoop=1;jettySize=auto;html=1;entryX=0.5;entryY=0;entryDx=0;entryDy=0;fillColor=#d5e8d4;strokeColor=#82b366;" edge="1" parent="1" source="m_J02QAU1l_-xuuvemvF-2" target="m_J02QAU1l_-xuuvemvF-3">
          <mxGeometry relative="1" as="geometry" />
        </mxCell>
        <mxCell id="m_J02QAU1l_-xuuvemvF-18" style="edgeStyle=orthogonalEdgeStyle;rounded=0;orthogonalLoop=1;jettySize=auto;html=1;exitX=1;exitY=0.5;exitDx=0;exitDy=0;entryX=1;entryY=0.5;entryDx=0;entryDy=0;curved=1;dashed=1;fillColor=#dae8fc;strokeColor=#6c8ebf;" edge="1" parent="1" source="m_J02QAU1l_-xuuvemvF-2" target="m_J02QAU1l_-xuuvemvF-10">
          <mxGeometry relative="1" as="geometry">
            <Array as="points">
              <mxPoint x="720" y="260" />
              <mxPoint x="720" y="540" />
            </Array>
          </mxGeometry>
        </mxCell>
        <mxCell id="m_J02QAU1l_-xuuvemvF-2" value="WeatherAPI" style="rounded=0;whiteSpace=wrap;html=1;fillColor=#d5e8d4;strokeColor=#82b366;" vertex="1" parent="1">
          <mxGeometry x="400" y="240" width="280" height="40" as="geometry" />
        </mxCell>
        <mxCell id="m_J02QAU1l_-xuuvemvF-17" style="edgeStyle=orthogonalEdgeStyle;rounded=0;orthogonalLoop=1;jettySize=auto;html=1;entryX=0.5;entryY=0;entryDx=0;entryDy=0;curved=1;dashed=1;exitX=0.25;exitY=1;exitDx=0;exitDy=0;fillColor=#dae8fc;strokeColor=#6c8ebf;" edge="1" parent="1" source="m_J02QAU1l_-xuuvemvF-3" target="m_J02QAU1l_-xuuvemvF-10">
          <mxGeometry relative="1" as="geometry" />
        </mxCell>
        <mxCell id="m_J02QAU1l_-xuuvemvF-3" value="ForecastService" style="rounded=0;whiteSpace=wrap;html=1;fillColor=#d5e8d4;strokeColor=#82b366;" vertex="1" parent="1">
          <mxGeometry x="560" y="320" width="120" height="40" as="geometry" />
        </mxCell>
        <mxCell id="m_J02QAU1l_-xuuvemvF-9" style="edgeStyle=orthogonalEdgeStyle;rounded=0;orthogonalLoop=1;jettySize=auto;html=1;fillColor=#d5e8d4;strokeColor=#82b366;" edge="1" parent="1" source="m_J02QAU1l_-xuuvemvF-4" target="m_J02QAU1l_-xuuvemvF-1">
          <mxGeometry relative="1" as="geometry" />
        </mxCell>
        <mxCell id="m_J02QAU1l_-xuuvemvF-16" style="rounded=0;orthogonalLoop=1;jettySize=auto;html=1;exitX=0.75;exitY=1;exitDx=0;exitDy=0;entryX=0.5;entryY=0;entryDx=0;entryDy=0;dashed=1;edgeStyle=orthogonalEdgeStyle;curved=1;fillColor=#dae8fc;strokeColor=#6c8ebf;" edge="1" parent="1" source="m_J02QAU1l_-xuuvemvF-4" target="m_J02QAU1l_-xuuvemvF-10">
          <mxGeometry relative="1" as="geometry">
            <Array as="points">
              <mxPoint x="500" y="360" />
              <mxPoint x="500" y="440" />
              <mxPoint x="540" y="440" />
            </Array>
          </mxGeometry>
        </mxCell>
        <mxCell id="m_J02QAU1l_-xuuvemvF-24" value="Telemetry" style="edgeLabel;html=1;align=center;verticalAlign=middle;resizable=0;points=[];" vertex="1" connectable="0" parent="m_J02QAU1l_-xuuvemvF-16">
          <mxGeometry x="0.6762" y="1" relative="1" as="geometry">
            <mxPoint as="offset" />
          </mxGeometry>
        </mxCell>
        <mxCell id="m_J02QAU1l_-xuuvemvF-4" value="AuthenticationService" style="rounded=0;whiteSpace=wrap;html=1;fillColor=#d5e8d4;strokeColor=#82b366;" vertex="1" parent="1">
          <mxGeometry x="400" y="320" width="120" height="40" as="geometry" />
        </mxCell>
        <mxCell id="m_J02QAU1l_-xuuvemvF-6" value="" style="edgeStyle=orthogonalEdgeStyle;rounded=0;orthogonalLoop=1;jettySize=auto;html=1;fillColor=#d5e8d4;strokeColor=#82b366;" edge="1" parent="1" source="m_J02QAU1l_-xuuvemvF-5" target="m_J02QAU1l_-xuuvemvF-2">
          <mxGeometry relative="1" as="geometry" />
        </mxCell>
        <mxCell id="m_J02QAU1l_-xuuvemvF-5" value="Users (est. 100 Billion)" style="shape=umlActor;verticalLabelPosition=bottom;verticalAlign=top;html=1;outlineConnect=0;fillColor=#d5e8d4;strokeColor=#82b366;" vertex="1" parent="1">
          <mxGeometry x="525" y="100" width="30" height="60" as="geometry" />
        </mxCell>
        <mxCell id="m_J02QAU1l_-xuuvemvF-19" style="edgeStyle=orthogonalEdgeStyle;rounded=0;orthogonalLoop=1;jettySize=auto;html=1;fillColor=#dae8fc;strokeColor=#6c8ebf;" edge="1" parent="1" source="m_J02QAU1l_-xuuvemvF-10" target="m_J02QAU1l_-xuuvemvF-11">
          <mxGeometry relative="1" as="geometry" />
        </mxCell>
        <mxCell id="m_J02QAU1l_-xuuvemvF-10" value="OpenTelemetryCollector" style="rounded=0;whiteSpace=wrap;html=1;fillColor=#dae8fc;strokeColor=#6c8ebf;" vertex="1" parent="1">
          <mxGeometry x="400" y="520" width="280" height="40" as="geometry" />
        </mxCell>
        <mxCell id="m_J02QAU1l_-xuuvemvF-11" value="&quot;Observability Platform&quot;&lt;br&gt;(Jaeger)" style="rounded=0;whiteSpace=wrap;html=1;fillColor=#dae8fc;strokeColor=#6c8ebf;" vertex="1" parent="1">
          <mxGeometry x="168" y="520" width="150" height="40" as="geometry" />
        </mxCell>
        <mxCell id="m_J02QAU1l_-xuuvemvF-22" style="edgeStyle=orthogonalEdgeStyle;rounded=0;orthogonalLoop=1;jettySize=auto;html=1;fillColor=#dae8fc;strokeColor=#6c8ebf;" edge="1" parent="1" source="m_J02QAU1l_-xuuvemvF-20" target="m_J02QAU1l_-xuuvemvF-11">
          <mxGeometry relative="1" as="geometry" />
        </mxCell>
        <mxCell id="m_J02QAU1l_-xuuvemvF-20" value="Engineers" style="shape=umlActor;verticalLabelPosition=bottom;verticalAlign=top;html=1;outlineConnect=0;fillColor=#dae8fc;strokeColor=#6c8ebf;" vertex="1" parent="1">
          <mxGeometry x="49" y="510" width="30" height="60" as="geometry" />
        </mxCell>
      </root>
    </mxGraphModel>
  </diagram>
</mxfile>
